HIERARCHY
ROOT Hips
{
  OFFSET 90.7885 88.945 -76.2838
  CHANNELS 6 Xposition Yposition Zposition Zrotation Xrotation Yrotation
  JOINT LeftUpLeg
  {
    OFFSET 8.64259 1.95398 -2.38835
    CHANNELS 3 Zrotation Xrotation Yrotation
    JOINT LeftLeg
    {
      OFFSET 43.7702 0 0
      CHANNELS 3 Zrotation Xrotation Yrotation
      JOINT LeftFoot
      {
        OFFSET 40.6238 0 0
        CHANNELS 3 Zrotation Xrotation Yrotation
        JOINT LeftToeBase
        {
          OFFSET 12.7242 0 0
          CHANNELS 3 Zrotation Xrotation Yrotation
          End Site
          {
            OFFSET 0 0 0
          }
        }
      }
    }
  }
  JOINT RightUpLeg
  {
    OFFSET -8.2249 1.95398 -2.59336
    CHANNELS 3 Zrotation Xrotation Yrotation
    JOINT RightLeg
    {
      OFFSET 43.5653 0 0
      CHANNELS 3 Zrotation Xrotation Yrotation
      JOINT RightFoot
      {
        OFFSET 40.6238 0 0
        CHANNELS 3 Zrotation Xrotation Yrotation
        JOINT RightToeBase
        {
          OFFSET 12.7242 0 0
          CHANNELS 3 Zrotation Xrotation Yrotation
          End Site
          {
            OFFSET 0 0 0
          }
        }
      }
    }
  }
  JOINT Spine
  {
    OFFSET 0.165834 0.87714 6.61349
    CHANNELS 3 Zrotation Xrotation Yrotation
    JOINT Spine1
    {
      OFFSET 7.38963 1.71661e-005 0
      CHANNELS 3 Zrotation Xrotation Yrotation
      JOINT Spine2
      {
        OFFSET 11.9445 1.14441e-005 0
        CHANNELS 3 Zrotation Xrotation Yrotation
        JOINT Spine3
        {
          OFFSET 14.7254 4.19617e-005 0
          CHANNELS 3 Zrotation Xrotation Yrotation
          JOINT Spine4
          {
            OFFSET 10.9679 0 0
            CHANNELS 3 Zrotation Xrotation Yrotation
            JOINT RightShoulder
            {
              OFFSET 2.46616 -1.6653 3.69651
              CHANNELS 3 Zrotation Xrotation Yrotation
              JOINT RightArm
              {
                OFFSET 13.0012 0 0
                CHANNELS 3 Zrotation Xrotation Yrotation
                JOINT RightForeArm
                {
                  OFFSET 28.7848 1.52588e-005 0
                  CHANNELS 3 Zrotation Xrotation Yrotation
                  JOINT RightHand
                  {
                    OFFSET 26.5688 1.52588e-005 0
                    CHANNELS 3 Zrotation Xrotation Yrotation
                    End Site
                    {
                      OFFSET 0 0 0
                    }
                  }
                }
              }
            }
            JOINT LeftShoulder
            {
              OFFSET 2.38034 -1.29275 -3.7523
              CHANNELS 3 Zrotation Xrotation Yrotation
              JOINT LeftArm
              {
                OFFSET 16.3182 6.10352e-005 0
                CHANNELS 3 Zrotation Xrotation Yrotation
                JOINT LeftForeArm
                {
                  OFFSET 27.0901 0 0
                  CHANNELS 3 Zrotation Xrotation Yrotation
                  JOINT LeftHand
                  {
                    OFFSET 24.5451 1.52588e-005 0
                    CHANNELS 3 Zrotation Xrotation Yrotation
                    End Site
                    {
                      OFFSET 0 0 0
                    }
                  }
                }
              }
            }
            JOINT Neck
            {
              OFFSET 5.0226 -0.0266342 0
              CHANNELS 3 Zrotation Xrotation Yrotation
              JOINT Head
              {
                OFFSET 6.69363 2.86102e-005 0
                CHANNELS 3 Zrotation Xrotation Yrotation
                End Site
                {
                  OFFSET 0 0 0
                }
              }
            }
          }
        }
      }
    }
  }
}
MOTION
Frames:	10
Frame Time:	0.0416667
25.0835 98.7614 -341.808 91.9512 -87.9721 91.2761 -173.404 -2.70251 96.307 -13.6684 11.3433 -1.39836 70.7751 4.66369 -3.40516 33.7373 -4.83764 6.92111 172.032 -7.97965 90.4794 -8.96275 -4.63798 -1.14791 76.1577 -9.05733 -0.463789 16.9115 -0.255958 2.74279 -0.225332 7.90925 -90.2965 11.0538 -0.586003 -0.533526 -0.617138 -0.608906 -0.507229 -23.152 -0.398562 -0.68497 -3.13934 -0.398566 -0.684976 90.6531 -30.1428 -105.411 46.4082 -8.32477 25.5673 -27.1626 -13.8594 -54.5031 -20.4905 0.592756 -18.5654 -89.3349 -52.3591 80.1923 -17.5477 35.2246 -9.56721 -9.44799 -15.3908 -50.6206 26.0138 13.0363 44.5468 19.7569 -1.14041 -5.07527 -7.27731 0.311342 3.51831 
25.1836 98.4493 -341.59 75.7346 -85.6057 73.4904 -175.064 0.0354347 93.9972 -16.9472 11.4787 -0.242469 71.5807 5.34464 -2.55661 35.1857 -4.49404 6.23169 170.44 -5.18723 88.7944 -12.3999 -4.02384 -0.376975 78.1839 -9.53238 -0.837999 17.3894 -1.03228 4.09373 -0.510243 7.82238 -90.0901 11.229 -1.05736 -0.0750093 -0.441492 -1.05964 -0.0284028 -22.9797 -0.985934 -0.389359 -2.96708 -0.985932 -0.389353 90.5409 -30.5837 -105.473 47.176 -7.73039 29.1997 -27.3058 -15.7284 -59.1058 -24.0874 0.558677 -16.8462 -87.9515 -50.0651 81.8035 -20.1761 33.6267 -4.50075 6.952 -4.13417 -52.4052 33.6004 6.91165 12.8889 20.5845 -1.53964 -7.3054 -7.59754 0.604245 4.67058 
24.9562 97.9188 -340.826 74.4446 -84.9071 71.6972 -175.551 2.1421 93.1398 -21.3901 11.0094 0.324762 74.0416 6.97154 0.85105 35.66 -2.24972 2.43026 170.056 -3.98762 88.3562 -15.4779 -3.28086 -0.148709 80.5751 -10.1161 -0.326834 17.3894 -0.35276 2.85096 -0.542229 7.85601 -90.1497 11.1611 -1.14873 -0.185617 -0.509354 -1.15578 -0.13488 -23.0479 -1.03983 -0.52231 -3.03521 -1.03982 -0.522304 91.0241 -29.6423 -104.85 48.2655 -7.83314 32.1926 -27.4145 -18.1235 -61.3018 -29.0616 0.328213 -14.2145 -86.2964 -51.084 84.4502 -17.9166 32.1334 -2.32242 28.3059 7.53438 -56.8555 -2.54391 -0.666597 -9.24676 21.8743 -1.15426 -5.18568 -7.84604 0.435229 3.12621 
24.5492 97.2103 -339.777 73.9147 -83.6114 71.2816 -175.045 5.31315 93.4391 -27.7917 11.2592 0.292277 74.8634 7.54898 1.60145 35.2365 -3.35799 4.34486 170.288 -3.55447 88.9094 -17.4593 -0.967513 0.0601298 82.87 -10.3338 1.18186 17.348 -0.878419 3.8156 -0.5477 7.86359 -90.2749 11.1451 -1.21779 -0.428588 -0.525369 -1.23547 -0.374576 -23.0635 -1.03268 -0.774802 -3.05088 -1.03268 -0.774792 90.9065 -29.1337 -105.272 49.0623 -6.59839 34.6995 -30.574 -20.0427 -63.1129 -31.6575 -0.276444 -11.9058 -86.4824 -51.36 84.214 -19.8152 33.7095 2.55439 28.3994 1.71721 -63.56 -4.58037 0.0237086 -10.8001 22.3036 -0.997763 -3.34197 -7.59075 0.0474623 2.08432 
24.2102 96.7923 -338.878 77.6235 -79.7177 74.5561 -176.475 11.8408 92.506 -38.5124 8.63905 1.7415 73.7123 6.88769 0.430407 34.2837 -1.70631 1.72531 169.755 -3.98002 89.2474 -17.5444 1.74136 0.927457 84.159 -10.856 -0.215545 16.7376 -1.00767 4.12567 -0.81185 7.89439 -90.3268 11.082 -1.76754 -0.479454 -0.58776 -1.78693 -0.401183 -23.13 -1.54172 -0.988606 -3.11732 -1.54172 -0.988614 90.7201 -28.9182 -105.727 49.3654 -5.77699 35.4763 -32.478 -23.628 -63.6962 -33.9204 -0.247152 -12.6596 -86.1815 -50.2433 84.4951 -22.1008 33.9922 5.99395 29.14 -1.56534 -67.8923 -4.01154 0.0190089 -12.0159 23.7437 -1.71996 -3.50986 -7.83771 -0.585252 2.78992 
23.9561 96.115 -337.707 78.8897 -76.1652 75.6218 -177.243 17.7261 91.2373 -48.0052 10.8756 2.73448 72.9277 7.03446 4.80726 33.6257 0.285712 -1.38867 169.615 -4.2568 89.8262 -18.3619 6.09438 1.60563 86.37 -10.5946 1.29917 16.4617 0.0995778 2.16886 -0.933106 7.95651 -90.4136 10.9559 -2.04907 -0.628066 -0.713497 -2.07472 -0.537247 -23.2577 -1.76556 -1.215 -3.245 -1.76557 -1.21501 89.8345 -29.5292 -107.272 48.753 -3.02873 35.8002 -31.0646 -25.4602 -61.7926 -38.3632 0.370364 -14.1025 -86.3752 -48.6653 83.959 -24.5103 33.9465 8.62063 30.2108 -3.71607 -71.2667 -3.81278 0.0110904 -12.3963 25.5321 -2.80519 -4.08828 -7.46369 -1.406 3.93114 
23.6927 95.4505 -336.22 76.886 -73.8786 73.4324 -177.385 23.3995 89.7056 -55.4492 8.38712 2.75196 73.587 7.33913 5.1037 31.7872 1.29385 -2.57534 169.903 -4.04123 90.4567 -18.7621 7.88556 1.75615 87.004 -9.97618 1.27162 18.001 -0.198768 2.50236 -0.86368 7.91002 -90.4786 11.0477 -1.94109 -0.765516 -0.621967 -1.9729 -0.679323 -23.164 -1.62128 -1.31359 -3.15136 -1.62128 -1.31359 89.923 -29.9334 -106.936 48.0891 -1.7903 34.9146 -33.0885 -26.1676 -63.4144 -39.8513 0.0198426 -13.0945 -86.4485 -48.2233 83.7768 -25.6063 34.6086 11.7432 31.6797 -5.81374 -74.283 -2.55206 -0.0812088 -11.2973 26.7889 -3.89244 -4.00525 -7.78821 -2.46285 4.37404 
23.408 94.6942 -334.558 73.3228 -72.9351 69.9489 -176.455 28.8986 88.2294 -60.9525 5.45166 1.99484 74.2819 7.38257 3.71041 31.3994 1.57583 -2.91742 170.65 -4.3398 91.4162 -17.7012 7.71026 1.37011 87.4499 -10.198 -0.877511 19.2604 -1.62156 5.0722 -0.657488 7.88958 -90.6396 11.0863 -1.60542 -1.11756 -0.584093 -1.65305 -1.04582 -23.1204 -1.19536 -1.54837 -3.10776 -1.19536 -1.54837 89.7957 -29.1821 -107.487 46.6762 0.709523 33.0278 -35.7679 -23.0724 -67.0253 -36.2931 -0.202595 -12.906 -86.0693 -49.7369 84.5868 -24.6424 35.4098 13.5641 34.0609 -7.16148 -76.4324 -1.14149 -0.1564 -10.4712 28.9257 -4.33431 -1.77972 -8.84264 -3.64419 3.17946 
23.2468 94.1754 -332.745 66.5039 -73.2114 63.068 -174.678 34.0169 86.1805 -63.7209 3.72347 0.684905 74.1722 7.12167 1.85651 31.3615 2.10666 -3.72223 171.004 -2.26908 92.3416 -19.7694 0.728674 0.723881 84.8036 -10.154 -10.4317 26.637 1.85655 -3.64568 -0.284031 7.8001 -90.6652 11.2674 -0.874896 -1.23783 -0.403819 -0.928529 -1.19813 -22.9351 -0.462479 -1.4435 -2.92246 -0.462481 -1.44352 89.2202 -29.8476 -108.363 43.5825 4.3609 30.1599 -37.9095 -16.1489 -72.2946 -33.3585 -0.911778 -9.8762 -86.7008 -49.3818 83.5774 -26.8121 34.0784 17.8068 36.8731 -8.32966 -78.666 -0.0110939 -0.209399 -10.1324 29.7057 -5.2177 -1.69894 -8.62949 -4.51072 3.45575 
22.7289 94.0013 -330.433 60.2478 -74.1043 57.2033 -172.251 37.8161 84.8178 -64.4968 5.84543 -0.532759 73.7826 6.89739 2.18133 31.2354 2.08253 -3.64946 171.282 1.32249 94.9034 -28.2458 -3.15774 0.17904 69.8092 0.429803 -14.541 52.0186 -0.0536273 -10.5015 0.124396 7.8229 -90.7556 11.226 -0.104048 -1.4955 -0.445783 -0.16975 -1.48948 -22.9743 0.350185 -1.45765 -2.96164 0.350183 -1.45764 88.9613 -30.0756 -108.781 38.839 14.5415 31.8067 -42.5495 0.329939 -90.3464 -17.3965 -1.94059 -2.8839 -86.0744 -49.5021 84.5454 -27.3935 33.1645 20.6714 35.5602 -9.76387 -79.9952 2.54219 -0.387395 -11.3334 31.3779 -5.59097 -0.937985 -8.99647 -5.15561 3.43405 
